<svg width="24" height="27" viewBox="0 0 24 27" fill="none" xmlns="http://www.w3.org/2000/svg">
<g id="Notification" clip-path="url(#clip0_251_2348)">
<path id="Vector" d="M12.0002 0C11.052 0 10.2859 0.754102 10.2859 1.6875V2.7C6.37523 3.48047 3.4288 6.88711 3.4288 10.9688V11.9602C3.4288 14.4387 2.50201 16.8328 0.830583 18.6891L0.434154 19.1268C-0.0158456 19.6225 -0.122989 20.3344 0.150226 20.9408C0.42344 21.5473 1.03951 21.9375 1.71451 21.9375H22.2859C22.9609 21.9375 23.5717 21.5473 23.8502 20.9408C24.1288 20.3344 24.0163 19.6225 23.5663 19.1268L23.1699 18.6891C21.4984 16.8328 20.5717 14.4439 20.5717 11.9602V10.9688C20.5717 6.88711 17.6252 3.48047 13.7145 2.7V1.6875C13.7145 0.754102 12.9484 0 12.0002 0ZM14.427 26.0139C15.0699 25.3811 15.4288 24.5215 15.4288 23.625H12.0002H8.57165C8.57165 24.5215 8.93058 25.3811 9.57344 26.0139C10.2163 26.6467 11.0895 27 12.0002 27C12.9109 27 13.7842 26.6467 14.427 26.0139Z" fill="#E6EFFF"/>
</g>
<defs>
<clipPath id="clip0_251_2348">
<rect width="24" height="27" fill="white"/>
</clipPath>
</defs>
</svg>
