<svg width="24" height="23" viewBox="0 0 24 23" fill="none" xmlns="http://www.w3.org/2000/svg">
<path d="M17.7778 19.9737C17.7778 20.7764 18.1056 21.5461 18.689 22.1137C19.2724 22.6812 20.0638 23.0001 20.8889 23.0001C21.714 23.0001 22.5053 22.6812 23.0888 22.1137C23.6722 21.5461 24 20.7764 24 19.9737C24 19.1711 23.6722 18.4014 23.0888 17.8338C22.5053 17.2663 21.714 16.9474 20.8889 16.9474C20.0638 16.9474 19.2724 17.2663 18.689 17.8338C18.1056 18.4014 17.7778 19.1711 17.7778 19.9737ZM8.88889 19.9737C8.88889 20.7764 9.21667 21.5461 9.80011 22.1137C10.3836 22.6812 11.1749 23.0001 12 23.0001C12.8251 23.0001 13.6164 22.6812 14.1999 22.1137C14.7833 21.5461 15.1111 20.7764 15.1111 19.9737C15.1111 19.1711 14.7833 18.4014 14.1999 17.8338C13.6164 17.2663 12.8251 16.9474 12 16.9474C11.1749 16.9474 10.3836 17.2663 9.80011 17.8338C9.21667 18.4014 8.88889 19.1711 8.88889 19.9737ZM3.11111 16.9474C2.28599 16.9474 1.49467 17.2663 0.911223 17.8338C0.327777 18.4014 -1.58823e-07 19.1711 -1.2553e-07 19.9737C-9.22375e-08 20.7764 0.327777 21.5461 0.911223 22.1137C1.49467 22.6812 2.28599 23.0001 3.11111 23.0001C3.93623 23.0001 4.72755 22.6812 5.311 22.1137C5.89445 21.5461 6.22222 20.7764 6.22222 19.9737C6.22222 19.1711 5.89445 18.4014 5.311 17.8338C4.72755 17.2663 3.93623 16.9474 3.11111 16.9474Z" fill="#E6EFFF"/>
<path d="M17.7778 11.5001C17.7778 12.3027 18.1056 13.0724 18.689 13.64C19.2724 14.2075 20.0638 14.5264 20.8889 14.5264C21.714 14.5264 22.5053 14.2075 23.0888 13.64C23.6722 13.0724 24 12.3027 24 11.5001C24 10.6974 23.6722 9.92767 23.0888 9.36012C22.5053 8.79258 21.714 8.47374 20.8889 8.47374C20.0638 8.47374 19.2724 8.79258 18.689 9.36012C18.1056 9.92767 17.7778 10.6974 17.7778 11.5001ZM8.88889 11.5001C8.88889 12.3027 9.21667 13.0724 9.80011 13.64C10.3836 14.2075 11.1749 14.5264 12 14.5264C12.8251 14.5264 13.6164 14.2075 14.1999 13.64C14.7833 13.0724 15.1111 12.3027 15.1111 11.5001C15.1111 10.6974 14.7833 9.92767 14.1999 9.36012C13.6164 8.79258 12.8251 8.47374 12 8.47374C11.1749 8.47374 10.3836 8.79258 9.80011 9.36012C9.21667 9.92767 8.88889 10.6974 8.88889 11.5001ZM3.11111 8.47374C2.28599 8.47374 1.49467 8.79258 0.911223 9.36012C0.327777 9.92767 -1.58823e-07 10.6974 -1.2553e-07 11.5001C-9.22375e-08 12.3027 0.327777 13.0724 0.911223 13.64C1.49467 14.2075 2.28599 14.5264 3.11111 14.5264C3.93623 14.5264 4.72755 14.2075 5.311 13.64C5.89445 13.0724 6.22222 12.3027 6.22222 11.5001C6.22222 10.6974 5.89445 9.92767 5.311 9.36012C4.72755 8.79258 3.93623 8.47374 3.11111 8.47374Z" fill="#E6EFFF"/>
<path d="M17.7778 3.02639C17.7778 3.82902 18.1056 4.59877 18.689 5.16632C19.2724 5.73386 20.0638 6.0527 20.8889 6.0527C21.714 6.0527 22.5053 5.73386 23.0888 5.16632C23.6722 4.59877 24 3.82902 24 3.02639C24 2.22376 23.6722 1.454 23.0888 0.88646C22.5053 0.318915 21.714 7.24327e-05 20.8889 7.24707e-05C20.0638 7.25087e-05 19.2724 0.318915 18.689 0.88646C18.1056 1.454 17.7778 2.22376 17.7778 3.02639ZM8.88889 3.02639C8.88889 3.82902 9.21667 4.59877 9.80011 5.16632C10.3836 5.73386 11.1749 6.0527 12 6.0527C12.8251 6.0527 13.6164 5.73386 14.1999 5.16632C14.7833 4.59877 15.1111 3.82902 15.1111 3.02639C15.1111 2.22376 14.7833 1.454 14.1999 0.88646C13.6164 0.318916 12.8251 7.28422e-05 12 7.28802e-05C11.1749 7.29182e-05 10.3836 0.318916 9.80011 0.88646C9.21667 1.454 8.88889 2.22376 8.88889 3.02639ZM3.11111 7.32896e-05C2.28599 7.33276e-05 1.49467 0.318916 0.911223 0.886461C0.327777 1.454 -1.58823e-07 2.22376 -1.2553e-07 3.02639C-9.22375e-08 3.82902 0.327777 4.59877 0.911223 5.16632C1.49467 5.73386 2.28599 6.0527 3.11111 6.0527C3.93623 6.0527 4.72755 5.73386 5.311 5.16632C5.89445 4.59877 6.22222 3.82902 6.22222 3.02639C6.22222 2.22376 5.89445 1.454 5.311 0.886461C4.72755 0.318916 3.93623 7.32516e-05 3.11111 7.32896e-05Z" fill="#E6EFFF"/>
</svg>
