<svg width="103" height="18" viewBox="0 0 103 18" fill="none" xmlns="http://www.w3.org/2000/svg">
<path d="M29.8568 3.71175C32.7288 3.71175 34.8471 5.60754 34.8471 8.92018C34.8471 12.0333 32.7288 14.1286 29.8568 14.1286C28.105 14.1286 26.9236 13.4302 26.2922 12.4523V18H24.6219V3.83148H26.0681L26.2922 5.46785C26.9847 4.52993 28.105 3.71175 29.8568 3.71175ZM29.6938 12.6718C31.7511 12.6718 33.1361 11.1353 33.1361 8.92018C33.1361 6.7051 31.7511 5.16851 29.6938 5.16851C27.6569 5.16851 26.2718 6.7051 26.2718 8.88027C26.2718 11.1153 27.6569 12.6718 29.6938 12.6718Z" fill="#36363A"/>
<path d="M41.5628 3.83148H42.0313V5.42794H41.1962C39.0167 5.42794 38.426 7.20399 38.426 8.8204V14.0089H36.7558V3.83148H38.2019L38.426 5.36807C38.9149 4.5898 39.7092 3.83148 41.5628 3.83148Z" fill="#36363A"/>
<path d="M44.3346 2.1153C43.7235 2.1153 43.255 1.67627 43.255 1.05765C43.255 0.439025 43.7235 0 44.3346 0C44.9456 0 45.4141 0.439025 45.4141 1.05765C45.4141 1.67627 44.9456 2.1153 44.3346 2.1153ZM43.4791 14.0089V3.83148H45.1493V14.0089H43.4791Z" fill="#36363A"/>
<path d="M47.0097 10.6563H48.7207C48.7818 11.8537 49.8614 12.7317 51.5927 12.7317C53.0593 12.7317 54.0981 12.1131 54.0981 11.1752C54.0981 9.898 52.9574 9.79823 51.4094 9.61862C49.0874 9.33925 47.2338 8.88027 47.2338 6.76497C47.2338 4.90909 48.9651 3.6918 51.3076 3.71175C53.6704 3.73171 55.3813 4.80931 55.5443 6.92461H53.8333C53.7111 5.88692 52.7334 5.10865 51.3076 5.10865C49.8614 5.10865 48.8837 5.70732 48.8837 6.64523C48.8837 7.76275 49.9836 7.90244 51.4909 8.08204C53.8537 8.36142 55.748 8.80044 55.748 11.0554C55.748 12.9512 53.8944 14.1286 51.5927 14.1286C48.904 14.1286 47.0505 12.8914 47.0097 10.6563Z" fill="#36363A"/>
<path d="M69.1919 3.71175C71.351 3.71175 73.1231 4.92905 73.1231 8.14191V14.0089H71.4529V8.24169C71.4529 6.24612 70.5566 5.20843 68.9882 5.20843C67.2569 5.20843 66.1977 6.48559 66.1977 8.56098V14.0089H64.5275V8.24169C64.5275 6.24612 63.6109 5.20843 62.0221 5.20843C60.3111 5.20843 59.2723 6.60532 59.2723 8.6408V14.0089H57.602V3.83148H59.0482L59.2723 5.22838C59.8222 4.49002 60.6981 3.71175 62.3072 3.71175C63.7534 3.71175 64.9959 4.35033 65.5866 5.64745C66.2181 4.54989 67.3384 3.71175 69.1919 3.71175Z" fill="#36363A"/>
<path d="M79.933 14.1286C76.8166 14.1286 74.7797 12.0333 74.7797 8.92018C74.7797 5.82705 76.7758 3.71175 79.709 3.71175C82.6421 3.71175 84.5567 5.52772 84.6382 8.54102C84.6382 8.76053 84.6179 9 84.5975 9.23947H76.5314V9.37916C76.5925 11.3149 77.835 12.6718 79.8108 12.6718C81.2774 12.6718 82.418 11.9135 82.7643 10.5965H84.4549C84.0475 12.6319 82.3365 14.1286 79.933 14.1286ZM76.6333 7.88248H82.8458C82.6828 6.12639 81.4607 5.14856 79.7293 5.14856C78.2017 5.14856 76.7962 6.22616 76.6333 7.88248Z" fill="#36363A"/>
<path d="M85.6641 13.0111C85.6641 12.3326 86.153 11.8936 86.8252 11.8936C87.4973 11.8936 87.9862 12.3326 87.9862 13.0111C87.9862 13.6896 87.4973 14.1286 86.8252 14.1286C86.153 14.1286 85.6641 13.6896 85.6641 13.0111Z" fill="#36363A"/>
<path d="M99.2513 12.5122H99.7809V14.0089H98.8643C97.4792 14.0089 97.0107 13.4302 96.9904 12.4324C96.3386 13.3503 95.2997 14.1286 93.5073 14.1286C91.226 14.1286 89.6779 13.0111 89.6779 11.1552C89.6779 9.11973 91.1241 7.98226 93.8536 7.98226H96.9089V7.28381C96.9089 5.96674 95.9515 5.16851 94.322 5.16851C92.8555 5.16851 91.8778 5.84701 91.6741 6.8847H90.0038C90.2483 4.88914 91.8981 3.71175 94.4035 3.71175C97.0515 3.71175 98.5791 5.00887 98.5791 7.38359V11.8337C98.5791 12.3725 98.7828 12.5122 99.2513 12.5122ZM96.9089 9.85809V9.3592H93.6906C92.2037 9.3592 91.3685 9.898 91.3685 11.0554C91.3685 12.0532 92.2444 12.7317 93.6295 12.7317C95.7071 12.7317 96.9089 11.5543 96.9089 9.85809Z" fill="#36363A"/>
<path d="M101.92 2.1153C101.309 2.1153 100.841 1.67627 100.841 1.05765C100.841 0.439025 101.309 0 101.92 0C102.531 0 103 0.439025 103 1.05765C103 1.67627 102.531 2.1153 101.92 2.1153ZM101.065 14.0089V3.83148H102.735V14.0089H101.065Z" fill="#36363A"/>
<path d="M8.29783 1.03041C10.2071 1.03041 11.755 2.54682 11.755 4.4174H4.8407C4.8407 2.54682 6.38851 1.03041 8.29783 1.03041Z" fill="#98C3F8"/>
<path d="M4.14825 9.15919C4.14825 6.91448 6.00561 5.0948 8.29681 5.0948C10.588 5.0948 12.4454 6.91448 12.4454 9.15919C12.4454 11.4039 10.588 13.2236 8.29681 13.2236C6.00561 13.2236 4.14825 11.4039 4.14825 9.15919Z" fill="#255BE0"/>
<path d="M3.45713 5.77219C1.54781 5.77219 0 7.28859 0 9.15918C0 11.0298 1.54781 12.5462 3.45713 12.5462V5.77219Z" fill="#98C3F8"/>
<path d="M16.5942 9.15918C16.5942 11.0298 15.0464 12.5462 13.1371 12.5462V5.77219C15.0464 5.77219 16.5942 7.28859 16.5942 9.15918Z" fill="#2541A8"/>
<path d="M4.8407 13.9012C4.8407 15.7717 6.38851 17.2882 8.29783 17.2882C10.2071 17.2882 11.755 15.7717 11.755 13.9012H4.8407Z" fill="#2541A8"/>
<path d="M13.1371 2.38518C14.2827 2.38518 15.2114 3.29502 15.2114 4.41737H13.1371V2.38518Z" fill="#4480ED"/>
<path d="M13.1371 15.9332C14.2827 15.9332 15.2114 15.0233 15.2114 13.901H13.1371V15.9332Z" fill="#233B85"/>
<path d="M1.3833 4.41736C1.3833 3.29501 2.31199 2.38516 3.45758 2.38516V4.41736H1.3833Z" fill="#C2DAFB"/>
<path d="M1.3833 13.9012C1.3833 15.0235 2.31199 15.9333 3.45758 15.9333V13.9012H1.3833Z" fill="#4480ED"/>
</svg>
