<svg width="239" height="18" viewBox="0 0 239 18" fill="none" xmlns="http://www.w3.org/2000/svg">
<g clip-path="url(#clip0_251_2330)">
<path d="M54.7805 2.48771C55.9187 3.48292 56.5587 4.83356 56.5587 6.53963C56.5587 8.24567 55.9897 9.59631 54.7805 10.5915C53.5713 11.5867 52.0066 12.0843 49.9439 12.0843H46.0318V16.8471H43.7557V0.994904H49.9439C52.0066 0.994904 53.6426 1.49251 54.7805 2.48771ZM53.1447 9.0987C53.9271 8.45895 54.2826 7.60591 54.2826 6.46853C54.2826 5.33116 53.9271 4.47813 53.1447 3.83835C52.3623 3.19857 51.2952 2.91424 49.8729 2.91424H46.0318V10.0228H49.8729C51.2952 10.0228 52.4334 9.73849 53.1447 9.0987Z" fill="white"/>
<path d="M80.4573 16.776L77.0431 11.9422C76.6165 11.9422 76.2607 12.0132 76.0473 12.0132H72.1354V16.8471H69.8593V0.994904H76.0473C78.1101 0.994904 79.6749 1.49251 80.8841 2.48771C82.0931 3.48292 82.6623 4.83356 82.6623 6.53963C82.6623 7.74809 82.3778 8.81438 81.7375 9.66741C81.1686 10.5204 80.2439 11.1602 79.177 11.5156L82.9468 16.8471H80.4573V16.776ZM79.2481 9.0987C80.0304 8.45895 80.3862 7.60591 80.3862 6.46853C80.3862 5.33116 80.0304 4.47813 79.2481 3.83835C78.4657 3.19857 77.3988 2.91424 75.9762 2.91424H72.1354V10.0228H75.9762C77.3988 10.0228 78.4657 9.73849 79.2481 9.0987Z" fill="white"/>
<path d="M96.3193 0.994904H98.5954V16.776H96.3193V0.994904Z" fill="white"/>
<path d="M114.456 16.4206C113.318 16.0652 112.465 15.5676 111.825 14.9989L112.678 13.2217C113.247 13.7904 114.03 14.2169 115.025 14.5724C115.95 14.9278 116.946 15.07 117.942 15.07C119.222 15.07 120.218 14.8567 120.858 14.4302C121.498 14.0037 121.854 13.3639 121.854 12.6531C121.854 12.0844 121.711 11.6578 121.356 11.3024C121 10.947 120.573 10.7337 120.075 10.5205C119.577 10.3072 118.795 10.1651 117.87 9.8807C116.661 9.59635 115.737 9.31202 115.025 9.02767C114.314 8.74332 113.674 8.31681 113.176 7.67703C112.678 7.10835 112.394 6.25531 112.394 5.2601C112.394 4.40707 112.607 3.62513 113.034 2.98535C113.461 2.2745 114.172 1.77689 115.025 1.35038C115.95 0.923859 117.017 0.710602 118.368 0.710602C119.293 0.710602 120.218 0.852773 121.142 1.06603C122.067 1.27929 122.849 1.63472 123.49 2.13232L122.778 3.90946C122.138 3.48296 121.427 3.1986 120.644 2.98535C119.862 2.7721 119.151 2.62992 118.44 2.62992C117.159 2.62992 116.235 2.84318 115.594 3.34078C114.954 3.83839 114.67 4.40707 114.67 5.11793C114.67 5.68663 114.883 6.11314 115.239 6.46856C115.594 6.82399 116.021 7.03727 116.59 7.25052C117.159 7.46378 117.87 7.60595 118.795 7.8192C120.004 8.10356 120.929 8.38789 121.64 8.67224C122.351 8.95659 122.992 9.3831 123.49 9.95178C123.987 10.5205 124.272 11.3024 124.272 12.2976C124.272 13.1507 124.059 13.8615 123.561 14.5724C123.134 15.2832 122.422 15.7808 121.498 16.2073C120.573 16.6339 119.435 16.7761 118.084 16.7761C116.732 16.9893 115.594 16.7761 114.456 16.4206Z" fill="white"/>
<path d="M152.01 16.776V5.26006L146.32 14.8567H145.253L139.563 5.33116V16.776H137.429V0.994904H139.278L145.893 12.0843L152.366 0.994904H154.215V16.776H152.01Z" fill="white"/>
<path d="M180.39 14.7856V16.776H168.939V0.994904H180.106V2.98531H171.215V7.81917H179.11V9.73849H171.215V14.8567H180.39V14.7856Z" fill="white"/>
<path d="M193.408 16.4914C193.124 16.2071 192.981 15.8517 192.981 15.3541C192.981 14.9275 193.124 14.5721 193.408 14.2878C193.693 14.0034 194.048 13.8612 194.475 13.8612C194.902 13.8612 195.258 14.0034 195.542 14.2878C195.827 14.5721 195.969 14.9275 195.969 15.4251C195.969 15.9227 195.827 16.2782 195.542 16.5625C195.258 16.8468 194.902 16.989 194.475 16.989C194.048 16.9179 193.693 16.7758 193.408 16.4914Z" fill="white"/>
<path d="M220.223 12.8665H211.83L210.123 16.8473H207.776L214.96 1.06622H217.165L224.349 16.8473H222.001L220.223 12.8665ZM219.441 11.0183L216.027 3.26988L212.612 11.0183H219.441Z" fill="white"/>
<path d="M236.724 0.994904H239V16.776H236.724V0.994904Z" fill="white"/>
<path fill-rule="evenodd" clip-rule="evenodd" d="M2.13182 0.0380859C3.24956 0.0380859 4.15567 0.944094 4.15567 2.06171V15.8014C4.15567 16.919 3.24956 17.825 2.13182 17.825C1.01408 17.825 0.107971 16.919 0.107971 15.8014V2.06171C0.107971 0.944094 1.01408 0.0380859 2.13182 0.0380859Z" fill="#015DFF"/>
<path fill-rule="evenodd" clip-rule="evenodd" d="M11.434 0.0380859C12.5517 0.0380859 13.4579 0.944094 13.4579 2.06171V15.8014C13.4579 16.919 12.5517 17.825 11.434 17.825C10.3163 17.825 9.41016 16.919 9.41016 15.8014V2.06171C9.41016 0.944094 10.3163 0.0380859 11.434 0.0380859Z" fill="#FF9261"/>
<path fill-rule="evenodd" clip-rule="evenodd" d="M20.7426 0.0380859C21.8603 0.0380859 22.7664 0.944094 22.7664 2.06171V15.8014C22.7664 16.919 21.8603 17.825 20.7426 17.825C19.6249 17.825 18.7188 16.919 18.7188 15.8014V2.06171C18.7188 0.944094 19.6249 0.0380859 20.7426 0.0380859Z" fill="#939CA6"/>
</g>
<defs>
<clipPath id="clip0_251_2330">
<rect width="239" height="18" fill="white"/>
</clipPath>
</defs>
</svg>
