<svg width="13" height="15" viewBox="0 0 13 15" fill="none" xmlns="http://www.w3.org/2000/svg">
<g clip-path="url(#clip0_353_4395)">
<path d="M5.67163 14.12C5.67163 14.6069 6.08918 15.0002 6.606 15.0002C7.12282 15.0002 7.54037 14.6069 7.54037 14.12V11.4795H5.67163V14.12Z" fill="#015DFF"/>
<path d="M11.4168 9.68203C11.7176 9.68203 12.0008 9.5445 12.176 9.31621C12.3512 9.08791 12.4008 8.7936 12.3045 8.52404L12.2753 8.44152C11.8723 7.30003 11.0255 6.38409 9.95394 5.83673L9.62107 1.76037H10.4824C10.9993 1.76037 11.4168 1.36704 11.4168 0.880185C11.4168 0.393333 10.9993 0 10.4824 0H3.00749C2.49067 0 2.07312 0.393333 2.07312 0.880185C2.07312 1.36704 2.49067 1.76037 3.00749 1.76037H3.86886L3.72316 3.54412L10.2389 9.68203H11.4165H11.4168Z" fill="#015DFF"/>
<path d="M12.0119 12.4003L10.1002 10.5995L3.58416 4.46133L0.922081 1.95363C0.711264 1.75504 0.369052 1.75504 0.158235 1.95363C-0.0525822 2.15222 -0.0525822 2.47459 0.158235 2.67318L3.47524 5.79784L3.39728 6.75421C2.32568 7.30158 1.47891 8.21752 1.07596 9.35901L1.04676 9.44153C0.950405 9.70833 0.997123 10.0026 1.17524 10.2337C1.35335 10.4647 1.63366 10.5995 1.93441 10.5995H8.57252L11.248 13.1199C11.3534 13.2192 11.4918 13.269 11.63 13.269C11.7681 13.269 11.9065 13.2192 12.0119 13.1199C12.223 12.9213 12.223 12.5989 12.0119 12.4003Z" fill="#015DFF"/>
</g>
<defs>
<clipPath id="clip0_353_4395">
<rect width="12.3529" height="15" fill="white"/>
</clipPath>
</defs>
</svg>
