<svg width="20" height="23" viewBox="0 0 20 23" fill="none" xmlns="http://www.w3.org/2000/svg">
<path d="M0 4.23922C0 3.45763 0.638393 2.82617 1.42857 2.82617H18.5714C19.3616 2.82617 20 3.45763 20 4.23922C20 5.02081 19.3616 5.65226 18.5714 5.65226H1.42857C0.638393 5.65226 0 5.02081 0 4.23922ZM0 11.3044C0 10.5228 0.638393 9.89139 1.42857 9.89139H18.5714C19.3616 9.89139 20 10.5228 20 11.3044C20 12.086 19.3616 12.7175 18.5714 12.7175H1.42857C0.638393 12.7175 0 12.086 0 11.3044ZM20 18.3696C20 19.1512 19.3616 19.7827 18.5714 19.7827H1.42857C0.638393 19.7827 0 19.1512 0 18.3696C0 17.5881 0.638393 16.9566 1.42857 16.9566H18.5714C19.3616 16.9566 20 17.5881 20 18.3696Z" fill="#015DFF"/>
</svg>
