<svg width="20" height="25" viewBox="0 0 20 25" fill="none" xmlns="http://www.w3.org/2000/svg">
<path d="M10.1481 5.10569H2.14813C0.962954 5.10569 0 3.96131 0 2.55285C0 1.14438 0.962954 0 2.14813 0H10.1481C11.3332 0 12.2962 1.14438 12.2962 2.55285C12.2962 3.96131 11.3332 5.10569 10.1481 5.10569Z" fill="#015DFF"/>
<path d="M14.2221 15.1404H6.14813C4.96296 15.1404 4 13.996 4 12.5875C4 11.179 4.96296 10.0347 6.14813 10.0347H14.1481C15.3333 10.0347 16.2962 11.179 16.2962 12.5875C16.3703 13.996 15.4073 15.1404 14.2221 15.1404Z" fill="#FF9261"/>
<path d="M17.8519 25H10.2224C9.03718 25 8.07422 23.8556 8.07422 22.4471C8.07422 21.0387 9.03718 19.8943 10.2224 19.8943H17.8519C19.0371 19.8943 20.0001 21.0387 20.0001 22.4471C20.0001 23.8556 19.0371 25 17.8519 25Z" fill="#939CA6"/>
</svg>
