<svg width="170" height="127" viewBox="0 0 170 127" fill="none" xmlns="http://www.w3.org/2000/svg">
<path d="M24.7467 14.5289L11.8384 16.035C4.7094 16.8667 -0.280142 22.4756 0.693979 28.5628L3.33968 45.0955L29.1562 42.0834L24.7467 14.5289Z" fill="#015DFF"/>
<path d="M5.10348 56.1173L10.3949 89.1826L36.2114 86.1706L30.92 53.1052L5.10348 56.1173Z" fill="#015DFF"/>
<path d="M12.1587 100.204L14.8044 116.737C15.7785 122.824 22.3474 127.085 29.4765 126.253L42.3847 124.747L37.9752 97.1924L12.1587 100.204Z" fill="#015DFF"/>
<path fill-rule="evenodd" clip-rule="evenodd" d="M55.293 123.241L132.743 114.205L127.453 81.1482L127.451 81.1392L127.45 81.1303L115.104 3.98672L37.6549 13.0229L55.293 123.241ZM72.8117 43.7267C70.6556 42.7025 68.0068 42.8063 65.9696 43.9949C63.9324 45.1835 62.8566 47.2529 63.1907 49.3403L68.4821 82.4056C68.8161 84.493 70.5027 86.2401 72.8386 86.9185C75.1746 87.5969 77.7589 87.0901 79.5142 85.6095L102.685 66.0648C104.144 64.8344 104.839 63.0894 104.561 61.3548C104.284 59.6203 103.066 58.0985 101.274 57.2473L72.8117 43.7267Z" fill="#015DFF"/>
<path d="M128.013 2.48068L132.422 30.0352L158.239 27.0231L155.593 10.4904C154.619 4.40324 148.05 0.142892 140.921 0.974652L128.013 2.48068Z" fill="#015DFF"/>
<path d="M160.003 38.0449L134.186 41.0569L139.477 74.1223L165.294 71.1102L160.003 38.0449Z" fill="#015DFF"/>
<path d="M167.058 82.132L141.241 85.1441L145.651 112.699L158.559 111.193C165.688 110.361 170.678 104.752 169.703 98.6647L167.058 82.132Z" fill="#015DFF"/>
</svg>
