<svg width="15" height="18" viewBox="0 0 15 18" fill="none" xmlns="http://www.w3.org/2000/svg">
<path d="M9 0.750046C9 0.428905 8.79555 0.143402 8.49151 0.0399928C8.18747 -0.0634164 7.85134 0.0382193 7.65554 0.292763L0.155537 10.0428C-0.0186736 10.2692 -0.0490681 10.575 0.0771523 10.8314C0.203373 11.0877 0.464278 11.25 0.750005 11.25H6V17.25C6 17.5712 6.20446 17.8567 6.5085 17.9601C6.81254 18.0635 7.14867 17.9619 7.34447 17.7073L14.8445 7.95733C15.0187 7.73085 15.0491 7.42507 14.9229 7.16873C14.7966 6.9124 14.5357 6.75005 14.25 6.75005H9V0.750046Z" fill="#939CA6"/>
</svg>
