<svg width="15" height="15" viewBox="0 0 15 15" fill="none" xmlns="http://www.w3.org/2000/svg">
<rect y="15" width="15" height="15" rx="2.25" transform="rotate(-90 0 15)" fill="#939CA6"/>
<path fill-rule="evenodd" clip-rule="evenodd" d="M3.75 12C3.33579 12 3 11.6642 3 11.25L3 3.75C3 3.33579 3.33579 3 3.75 3C4.16421 3 4.5 3.33579 4.5 3.75L4.5 11.25C4.5 11.6642 4.16421 12 3.75 12ZM7.5 12C7.08579 12 6.75 11.6642 6.75 11.25L6.75 6.96429C6.75 6.55007 7.08579 6.21429 7.5 6.21429C7.91421 6.21429 8.25 6.55007 8.25 6.96429L8.25 11.25C8.25 11.6642 7.91421 12 7.5 12ZM11.25 12C10.8358 12 10.5 11.6642 10.5 11.25L10.5 3.75C10.5 3.33579 10.8358 3 11.25 3C11.6642 3 12 3.33579 12 3.75L12 11.25C12 11.6642 11.6642 12 11.25 12Z" fill="white"/>
</svg>
