<svg width="295" height="228" viewBox="0 0 295 228" fill="none" xmlns="http://www.w3.org/2000/svg">
<path d="M26.7467 99.5289L13.8384 101.035C6.7094 101.867 1.71986 107.476 2.69398 113.563L5.33968 130.095L31.1562 127.083L26.7467 99.5289Z" fill="#015DFF"/>
<path d="M7.10348 141.117L12.3949 174.183L38.2114 171.171L32.92 138.105L7.10348 141.117Z" fill="#015DFF"/>
<path d="M14.1587 185.204L16.8044 201.737C17.7785 207.824 24.3474 212.085 31.4765 211.253L44.3847 209.747L39.9752 182.192L14.1587 185.204Z" fill="#015DFF"/>
<path fill-rule="evenodd" clip-rule="evenodd" d="M57.293 208.241L134.743 199.205L129.453 166.148L129.451 166.139L129.45 166.13L117.104 88.9867L39.6549 98.0229L57.293 208.241ZM74.8117 128.727C72.6556 127.702 70.0068 127.806 67.9696 128.995C65.9324 130.184 64.8566 132.253 65.1907 134.34L70.4821 167.406C70.8161 169.493 72.5027 171.24 74.8386 171.918C77.1746 172.597 79.7589 172.09 81.5142 170.61L104.685 151.065C106.144 149.834 106.839 148.089 106.561 146.355C106.284 144.62 105.066 143.098 103.274 142.247L74.8117 128.727Z" fill="#015DFF"/>
<path d="M130.013 87.4807L134.422 115.035L160.239 112.023L157.593 95.4904C156.619 89.4032 150.05 85.1429 142.921 85.9747L130.013 87.4807Z" fill="#015DFF"/>
<path d="M162.003 123.045L136.186 126.057L141.477 159.122L167.294 156.11L162.003 123.045Z" fill="#015DFF"/>
<path d="M169.058 167.132L143.241 170.144L147.651 197.699L160.559 196.193C167.688 195.361 172.678 189.752 171.703 183.665L169.058 167.132Z" fill="#015DFF"/>
<path d="M266.926 58.8802C266.976 57.6001 265.925 56.4799 264.452 56.2411C262.978 56.0023 261.52 56.7162 261.017 57.9229C259.202 62.2791 257.713 65.4971 256.184 67.9179C254.675 70.3086 253.222 71.7665 251.568 72.7284C249.913 73.6904 247.792 74.311 244.634 74.6343C241.436 74.9617 237.384 74.9661 231.972 74.8126C230.472 74.7701 229.161 75.6667 228.881 76.9251C228.601 78.1835 229.437 79.4282 230.851 79.8576C235.952 81.4076 239.721 82.6793 242.556 83.9841C245.356 85.2728 247.064 86.5136 248.19 87.9262C249.317 89.3388 250.044 91.1499 250.422 93.8464C250.806 96.577 250.811 100.037 250.631 104.658C250.581 105.938 251.631 107.059 253.105 107.297C254.579 107.536 256.037 106.822 256.539 105.616C258.355 101.259 259.844 98.0415 261.372 95.6206C262.882 93.2299 264.335 91.7721 265.989 90.8101C267.644 89.8481 269.765 89.2276 272.923 88.9043C276.121 88.5769 280.173 88.5724 285.585 88.726C287.084 88.7685 288.396 87.8718 288.676 86.6134C288.956 85.3551 288.12 84.1104 286.706 83.681C281.605 82.131 277.836 80.8593 275.001 79.5544C272.201 78.2658 270.493 77.0249 269.367 75.6123C268.24 74.1998 267.513 72.3887 267.135 69.6921C266.751 66.9616 266.746 63.5014 266.926 58.8802Z" fill="#015DFF"/>
<path d="M131.214 3.38C130.932 2.45384 129.902 1.84124 128.787 1.93671C127.672 2.03218 126.805 2.80726 126.744 3.76276C126.524 7.21204 126.255 9.78695 125.761 11.7977C125.272 13.7835 124.593 15.0908 123.646 16.0792C122.7 17.0677 121.334 17.8959 119.152 18.6987C116.942 19.5116 114.04 20.2478 110.124 21.1166C109.039 21.3573 108.322 22.237 108.434 23.1892C108.545 24.1413 109.453 24.8818 110.572 24.9338C114.612 25.1216 117.627 25.3511 119.982 25.7732C122.308 26.19 123.839 26.7702 124.997 27.5785C126.154 28.3868 127.124 29.5528 128.065 31.4163C129.017 33.3032 129.879 35.7813 130.896 39.1247C131.178 40.0508 132.208 40.6634 133.324 40.5679C134.439 40.4725 135.306 39.6974 135.367 38.7419C135.587 35.2926 135.856 32.7177 136.35 30.7069C136.838 28.7211 137.518 27.4139 138.464 26.4254C139.411 25.437 140.776 24.6088 142.959 23.806C145.169 22.993 148.071 22.2569 151.987 21.388C153.071 21.1473 153.789 20.2676 153.677 19.3155C153.565 18.3634 152.657 17.6228 151.538 17.5708C147.499 17.383 144.483 17.1536 142.128 16.7315C139.802 16.3147 138.271 15.7344 137.114 14.9262C135.956 14.1179 134.986 12.9518 134.046 11.0884C133.094 9.20141 132.232 6.72333 131.214 3.38Z" fill="#015DFF" fill-opacity="0.5"/>
<path fill-rule="evenodd" clip-rule="evenodd" d="M162.811 191.093C166.601 177.463 182.613 169.037 198.576 172.273C214.538 175.509 224.406 189.181 220.616 202.811C216.827 216.44 200.814 224.866 184.852 221.63C168.89 218.394 159.022 204.722 162.811 191.093ZM184.332 184.283C183.192 184.052 182.048 184.653 181.778 185.627C181.507 186.6 182.212 187.577 183.352 187.808L187.481 188.645C188.621 188.876 189.765 188.274 190.036 187.301C190.306 186.327 189.601 185.351 188.461 185.12L184.332 184.283ZM200.848 187.631C199.708 187.4 198.564 188.001 198.293 188.975C198.023 189.949 198.728 190.925 199.868 191.156L203.997 191.993C205.137 192.224 206.281 191.623 206.551 190.649C206.822 189.675 206.117 188.699 204.977 188.468L200.848 187.631ZM183.456 195.278C182.316 195.047 181.172 195.648 180.901 196.622C179.552 201.474 183.091 206.376 188.773 207.528C194.455 208.68 200.197 205.659 201.546 200.807C201.817 199.833 201.112 198.857 199.972 198.626L183.456 195.278Z" fill="#015DFF" stroke="white" stroke-linecap="round" stroke-linejoin="round"/>
</svg>
